<svg width="72" height="72" viewBox="0 0 72 72" fill="none" xmlns="http://www.w3.org/2000/svg">
<rect x="1.5" y="1.5" width="69" height="69" rx="34.5" stroke="#30445C" stroke-width="3"/>
<path d="M36 19.605C41.34 19.605 41.9733 19.625 44.0833 19.7217C49.5033 19.9683 52.035 22.54 52.2817 27.92C52.3783 30.0283 52.3967 30.6617 52.3967 36.0017C52.3967 41.3433 52.3767 41.975 52.2817 44.0833C52.0333 49.4583 49.5083 52.035 44.0833 52.2817C41.9733 52.3783 41.3433 52.3983 36 52.3983C30.66 52.3983 30.0267 52.3783 27.9183 52.2817C22.485 52.0333 19.9667 49.45 19.72 44.0817C19.6233 41.9733 19.6033 41.3417 19.6033 36C19.6033 30.66 19.625 30.0283 19.72 27.9183C19.9683 22.54 22.4933 19.9667 27.9183 19.72C30.0283 19.625 30.66 19.605 36 19.605ZM36 16C30.5683 16 29.8883 16.0233 27.755 16.12C20.4917 16.4533 16.455 20.4833 16.1217 27.7533C16.0233 29.8883 16 30.5683 16 36C16 41.4317 16.0233 42.1133 16.12 44.2467C16.4533 51.51 20.4833 55.5467 27.7533 55.88C29.8883 55.9767 30.5683 56 36 56C41.4317 56 42.1133 55.9767 44.2467 55.88C51.5033 55.5467 55.55 51.5167 55.8783 44.2467C55.9767 42.1133 56 41.4317 56 36C56 30.5683 55.9767 29.8883 55.88 27.755C55.5533 20.4983 51.5183 16.455 44.2483 16.1217C42.1133 16.0233 41.4317 16 36 16ZM36 25.73C30.3283 25.73 25.73 30.3283 25.73 36C25.73 41.6717 30.3283 46.2717 36 46.2717C41.6717 46.2717 46.27 41.6733 46.27 36C46.27 30.3283 41.6717 25.73 36 25.73ZM36 42.6667C32.3183 42.6667 29.3333 39.6833 29.3333 36C29.3333 32.3183 32.3183 29.3333 36 29.3333C39.6817 29.3333 42.6667 32.3183 42.6667 36C42.6667 39.6833 39.6817 42.6667 36 42.6667ZM46.6767 22.925C45.35 22.925 44.275 24 44.275 25.325C44.275 26.65 45.35 27.725 46.6767 27.725C48.0017 27.725 49.075 26.65 49.075 25.325C49.075 24 48.0017 22.925 46.6767 22.925Z" fill="#30445C"/>
</svg>
