<svg width="287" height="98" viewBox="0 0 287 98" fill="none" xmlns="http://www.w3.org/2000/svg">
<path d="M1.51409 48.9881H24.0931V24.0853C24.0931 21.9601 22.1637 20.8886 21.0314 22.3898L0.366685 46.492C-0.473442 47.4751 0.222963 48.9881 1.51409 48.9881Z" fill="#12B0DB"/>
<path d="M24.0931 48.9907V64.7978C24.0931 67.6209 27.0639 68.2553 27.7269 65.575L31.8277 48.9907H24.0931Z" fill="#12B0DB"/>
<path d="M31.8277 48.9907L47.2067 48.9903V2.49373C47.2067 -0.336284 44.2307 -0.974543 43.5641 1.71096L31.8277 48.9907Z" fill="#12B0DB"/>
<path d="M92.898 48.9577H70.3187V73.8579C70.3187 75.9895 72.2482 77.0583 73.3805 75.5552L94.0451 51.4494C94.8859 50.4721 94.1891 48.9577 92.898 48.9577Z" fill="#12B0DB"/>
<path d="M70.3196 48.9562V33.1482C70.3196 30.325 67.3491 29.6892 66.6858 32.3724L62.5852 48.9562H70.3196Z" fill="#12B0DB"/>
<path d="M62.5852 48.9562L47.2063 48.9576V95.4546C47.2063 98.2835 50.1818 98.9236 50.8482 96.2376L62.5852 48.9562Z" fill="#12B0DB"/>
<path d="M146.329 38.5582H131.105V47.5344H144.713V50.1189H131.105V61.0712H128.268V35.9389H146.329V38.5582Z" fill="#0E2A3A"/>
<path d="M172.358 50.3335C172.358 52.1762 172.108 53.793 171.605 55.1837C171.102 56.5687 170.389 57.7277 169.468 58.6665C168.547 59.5994 167.445 60.2948 166.165 60.7642C164.885 61.2336 163.454 61.4654 161.874 61.4654C160.318 61.4654 158.9 61.2336 157.62 60.7642C156.339 60.2948 155.238 59.6052 154.317 58.6838C153.395 57.7624 152.683 56.6151 152.18 55.2533C151.677 53.8915 151.426 52.3211 151.426 50.5537V35.939H154.263V50.3682C154.263 53.0976 154.939 55.1953 156.292 56.6556C157.643 58.1159 159.528 58.8461 161.946 58.8461C164.268 58.8461 166.112 58.1507 167.476 56.7599C168.84 55.375 169.522 53.3004 169.522 50.5537V35.939H172.358V50.3335Z" fill="#0E2A3A"/>
<path d="M188.551 61.0712H185.714V38.5582H177.277V35.9389H196.988V38.5582H188.551V61.0712Z" fill="#0E2A3A"/>
<path d="M222.876 50.3335C222.876 52.1762 222.625 53.793 222.122 55.1837C221.62 56.5687 220.907 57.7277 219.986 58.6665C219.064 59.5994 217.963 60.2948 216.682 60.7642C215.402 61.2336 213.972 61.4654 212.392 61.4654C210.835 61.4654 209.417 61.2336 208.137 60.7642C206.856 60.2948 205.755 59.6052 204.834 58.6838C203.912 57.7624 203.201 56.6151 202.697 55.2533C202.195 53.8915 201.943 52.3211 201.943 50.5537V35.939H204.78V50.3682C204.78 53.0976 205.456 55.1953 206.809 56.6556C208.161 58.1159 210.045 58.8461 212.464 58.8461C214.785 58.8461 216.629 58.1507 217.993 56.7599C219.358 55.375 220.04 53.3004 220.04 50.5537V35.939H222.876V50.3335Z" fill="#0E2A3A"/>
<path d="M244.952 39.8736C243.824 38.9986 242.24 38.5582 240.2 38.5582H232.426V48.7919H240.165C241.101 48.7919 241.964 48.6702 242.756 48.4326C243.548 48.1892 244.232 47.8473 244.808 47.4011C245.383 46.9607 245.834 46.416 246.158 45.767C246.482 45.1179 246.644 44.382 246.644 43.5649C246.644 41.9829 246.079 40.7487 244.952 39.8736ZM246.895 61.0712L239.606 51.3069H232.426V61.0712H229.589V35.9389H240.396C241.784 35.9389 243.035 36.1185 244.148 36.4778C245.262 36.8371 246.213 37.347 247.003 38.0019C247.793 38.6625 248.403 39.4506 248.834 40.372C249.265 41.2992 249.48 42.3191 249.48 43.4433C249.48 44.4979 249.312 45.4367 248.978 46.2654C248.642 47.094 248.17 47.8126 247.56 48.4211C246.949 49.0295 246.225 49.5394 245.387 49.9451C244.549 50.3565 243.64 50.6404 242.658 50.8085L250.378 61.0712H246.895Z" fill="#0E2A3A"/>
<path d="M266.14 39.0952L260.396 51.9102H271.849L266.14 39.0952ZM278.958 61.0678H275.906L272.962 54.4256H259.282L256.302 61.0678H253.394L264.848 35.7568H267.505L278.958 61.0678Z" fill="#0E2A3A"/>
<path d="M287 35.9389V61.0712H284.164V35.9389H287Z" fill="#0E2A3A"/>
</svg>
