<svg width="72" height="72" viewBox="0 0 72 72" fill="none" xmlns="http://www.w3.org/2000/svg">
<rect x="1.5" y="1.5" width="69" height="69" rx="34.5" stroke="#30445C" stroke-width="3"/>
<path fill-rule="evenodd" clip-rule="evenodd" d="M31.1961 50.326C31.5784 51.0427 31.9613 51.6884 32.3273 52.2607C28.4388 51.3862 25.0646 49.1527 22.7297 46.0851C24.2707 45.2173 26.2443 44.3178 28.617 43.6596C29.2914 46.3044 30.2428 48.5384 31.1961 50.326ZM34.1373 48.7573C33.3091 47.2047 32.4791 45.2656 31.8811 42.968C33.1684 42.7769 34.5427 42.6667 36.0002 42.6667C37.4576 42.6667 38.8318 42.7769 40.1189 42.9678C39.5209 45.2656 38.6909 47.2047 37.8627 48.7573C37.1987 50.0024 36.5371 50.9964 36 51.7238C35.4629 50.9964 34.8013 50.0024 34.1373 48.7573ZM31 36C31 37.298 31.0873 38.53 31.2413 39.6931C32.7264 39.4653 34.3142 39.3333 36.0002 39.3333C37.686 39.3333 39.2738 39.4651 40.7587 39.6931C40.9127 38.5298 41 37.298 41 36C41 34.702 40.9127 33.4702 40.7587 32.3069C39.2738 32.5347 37.686 32.6667 36.0002 32.6667C34.3142 32.6667 32.7264 32.5347 31.2413 32.3069C31.0873 33.47 31 34.702 31 36ZM27.9708 31.6196C27.7773 32.9951 27.6667 34.4564 27.6667 36C27.6667 37.5436 27.7773 39.0049 27.9708 40.3804C25.1408 41.1402 22.7974 42.2116 20.985 43.2424C19.9266 41.0524 19.3333 38.5956 19.3333 36C19.3333 33.4044 19.9266 30.9476 20.985 28.7575C22.7972 29.7883 25.1407 30.8597 27.9708 31.6196ZM31.8811 29.0321C33.1684 29.2232 34.5427 29.3333 36.0002 29.3333C37.4576 29.3333 38.8318 29.2232 40.1189 29.0322C39.5209 26.7346 38.6909 24.7954 37.8627 23.2427C37.1987 21.9976 36.5371 21.0035 36 20.2763C35.4629 21.0035 34.8013 21.9976 34.1373 23.2426C33.3091 24.7954 32.4791 26.7345 31.8811 29.0321ZM44.0291 31.6198C44.2227 32.9953 44.3333 34.4567 44.3333 36C44.3333 37.5436 44.2227 39.0047 44.0291 40.3802C46.8591 41.1402 49.2027 42.2116 51.0151 43.2424C52.0733 41.0522 52.6667 38.5953 52.6667 36C52.6667 33.4047 52.0733 30.9477 51.0151 28.7576C49.2029 29.7884 46.8593 30.8598 44.0291 31.6198ZM49.2702 25.9151C47.7291 26.7829 45.7556 27.6823 43.3831 28.3406C42.7087 25.6956 41.7573 23.4615 40.804 21.674C40.4216 20.9573 40.0387 20.3117 39.6727 19.7393C43.5613 20.6138 46.9356 22.8475 49.2702 25.9151ZM28.617 28.3406C26.2445 27.6822 24.2709 26.7828 22.7298 25.915C25.0646 22.8474 28.4388 20.6138 32.3271 19.7393C31.9613 20.3117 31.5784 20.9572 31.1961 21.674C30.2428 23.4615 29.2914 25.6956 28.617 28.3406ZM43.3831 43.6593C42.7087 46.3044 41.7573 48.5384 40.804 50.326C40.4216 51.0427 40.0387 51.6884 39.6727 52.2607C43.5613 51.3862 46.9356 49.1524 49.2704 46.0849C47.7293 45.2171 45.7558 44.3178 43.3831 43.6593ZM36 56C47.0458 56 56 47.0458 56 36C56 24.9543 47.0458 16 36 16C24.9543 16 16 24.9543 16 36C16 47.0458 24.9543 56 36 56Z" fill="#30445C"/>
</svg>
