<svg width="72" height="72" viewBox="0 0 72 72" fill="none" xmlns="http://www.w3.org/2000/svg">
<rect x="1.5" y="1.5" width="69" height="69" rx="34.5" stroke="#30445C" stroke-width="3"/>
<g clip-path="url(#clip0_4928_272)">
<path d="M47.6925 21.8477H24.3075C19.7194 21.8477 16 25.567 16 30.1551V41.8452C16 46.4333 19.7194 50.1527 24.3075 50.1527H47.6925C52.2806 50.1527 56 46.4333 56 41.8452V30.1551C56 25.567 52.2806 21.8477 47.6925 21.8477ZM42.0742 36.5689L31.1363 41.7857C30.8448 41.9247 30.5082 41.7122 30.5082 41.3893V30.6298C30.5082 30.3023 30.8537 30.0901 31.1457 30.2381L42.0837 35.7809C42.4089 35.9457 42.4032 36.412 42.0742 36.5689Z" fill="#30445C"/>
</g>
<defs>
<clipPath id="clip0_4928_272">
<rect width="40" height="40" fill="white" transform="translate(16 16)"/>
</clipPath>
</defs>
</svg>
